PathFileType	4	(X/Y/Z)	OpenSim_Sub05_CSStiffKnee_Gyro.trc
DataRate	CameraRate	NumFrames	NumMarkers	Units	OrigDataRate	OrigDataStartFrame	OrigNumFrames
100	100	16	8	m	100	4219	11248
Frame#	Time	torso_imu_offset_imu	pelvis_imu_offset_imu	tibia_r_imu_offset_imu	femur_r_imu_offset_imu	tibia_l_imu_offset_imu	femur_l_imu_offset_imu	toes_r_imu_offset_imu	toes_l_imu_offset_imu
				X1	Y1	Z1	X2	Y2	Z2	X3	Y3	Z3	X4	Y4	Z4	X5	Y5	Z5	X6	Y6	Z6	X7	Y7	Z7	X8		Y8	Z8	

4219	42.18000000	0.39988998	-0.01709716	0.23226558	-0.32826183	-0.29225365	0.03848520	-0.45961399	-0.13650412	-0.43969854	-0.27385527	-0.06791616	-0.65032683	-0.42312790	0.28885076	-1.94248406	-0.44582177	0.26799927	-0.90987722	-0.09567621	-0.50675237	-0.28917719	0.08893471	1.53953499	-0.84831658
4220	42.19000000	0.35448022	-0.01064759	0.21951510	-0.37464958	-0.26928570	0.06363186	-0.51855232	-0.13061849	-0.45943814	-0.16260442	-0.13983351	-0.66591608	-0.42480632	0.29728194	-1.90474337	-0.50860534	0.21916406	-0.84372404	-0.09761532	-0.52206176	-0.30701829	0.04847407	1.57837699	-0.85484021
4221	42.20000000	0.31486737	-0.00965584	0.17353313	-0.41410685	-0.27179604	0.08320347	-0.53368787	-0.10889044	-0.47668477	-0.17417580	-0.12804793	-0.66905896	-0.44374195	0.30040112	-1.85832270	-0.53554976	0.20752573	-0.77342925	-0.08137300	-0.53327811	-0.32433026	0.00093575	1.56030454	-0.83296369
4222	42.21000000	0.28042166	-0.00765091	0.14048487	-0.44255051	-0.30192139	0.09809651	-0.53165722	-0.09423289	-0.50009715	-0.28122063	-0.12112513	-0.66924871	-0.45693277	0.30086309	-1.78868395	-0.53622974	0.19078577	-0.70038383	-0.05115581	-0.54916019	-0.33769854	-0.02252545	1.51444258	-0.79808664
4223	42.22000000	0.23758738	0.00462623	0.12789116	-0.45145386	-0.33270801	0.09661262	-0.51508376	-0.08620886	-0.54346964	-0.32962831	-0.12776792	-0.68874232	-0.43482071	0.27387054	-1.69842201	-0.48955552	0.14310743	-0.64775592	-0.04573552	-0.57498987	-0.34869182	-0.01488108	1.44567776	-0.74774024
4224	42.23000000	0.18771672	0.01184537	0.11016688	-0.44856456	-0.37569343	0.07468638	-0.45683025	-0.07639065	-0.58843830	-0.34119151	-0.07711543	-0.71888090	-0.39597312	0.21110838	-1.59463652	-0.41302655	0.08601775	-0.62228323	-0.05087748	-0.61314271	-0.35418329	0.02941725	1.32071152	-0.67983201
4225	42.24000000	0.14244376	0.01475203	0.09023306	-0.44861667	-0.39558064	0.04743925	-0.45409150	-0.06458854	-0.62905567	-0.34393164	-0.01759248	-0.72395810	-0.32418255	0.15127594	-1.47632928	-0.34656702	0.05902870	-0.58770329	-0.04724830	-0.66397642	-0.35330691	0.08606781	1.17485403	-0.58957973
4226	42.25000000	0.10858349	0.02210188	0.05224425	-0.44524028	-0.37249476	0.02214225	-0.47158175	-0.04786230	-0.66306202	-0.31697879	0.00212686	-0.69993884	-0.22112654	0.10402310	-1.34168162	-0.31597088	0.04796647	-0.52503463	-0.05948230	-0.74442086	-0.35438196	0.11028764	1.06223949	-0.48898694
4227	42.26000000	0.08707941	0.03654920	-0.00128682	-0.44942422	-0.36052106	0.00212549	-0.44298500	-0.03042775	-0.71791552	-0.29110420	-0.01122220	-0.66866167	-0.15674502	0.05154205	-1.19072098	-0.30263646	0.04202344	-0.46696157	-0.08307236	-0.85926566	-0.34878936	0.14527275	0.94790138	-0.39268838
4228	42.27000000	0.06940300	0.06027282	-0.04228859	-0.45244036	-0.35038600	-0.01511872	-0.46634374	-0.01112682	-0.79315054	-0.29434143	-0.02359692	-0.61780072	-0.10034075	-0.00564616	-1.04854909	-0.30143829	0.04038602	-0.41908183	-0.11183749	-0.98220476	-0.34020360	0.20924974	0.82629686	-0.29116879
4229	42.28000000	0.04881159	0.09475540	-0.05681908	-0.43680372	-0.34469033	-0.01452410	-0.46914205	0.01245167	-0.87033869	-0.35049985	0.02962088	-0.54204769	0.02710053	-0.05056567	-0.90567330	-0.29126037	0.02674610	-0.37610510	-0.13853066	-1.11106429	-0.33412013	0.24495730	0.72884681	-0.19735920
4230	42.29000000	0.02321702	0.13473433	-0.07363448	-0.41094225	-0.33604408	-0.00328088	-0.41467831	0.04287177	-0.95222045	-0.40553793	0.11014588	-0.45175691	0.14023588	-0.10673877	-0.74816584	-0.22816262	0.01167884	-0.33162951	-0.15475212	-1.26228270	-0.32235788	0.29800268	0.63977928	-0.10904192
4231	42.30000000	-0.00845578	0.16685726	-0.09723001	-0.39089139	-0.33531474	0.01512586	-0.33847347	0.07488073	-1.04871375	-0.38492332	0.17000658	-0.36254230	0.23044170	-0.16971685	-0.58599983	-0.13688079	-0.03032835	-0.27407422	-0.15026725	-1.42565616	-0.31133235	0.37819836	0.55401443	-0.02073073
4232	42.31000000	-0.01582016	0.17098187	-0.11020747	-0.38024892	-0.35546934	0.05389943	-0.26330733	0.08272991	-1.16375432	-0.33330293	0.23476056	-0.28499175	0.31715308	-0.21211256	-0.41537183	-0.04466874	-0.09842845	-0.21128348	-0.14244977	-1.61764216	-0.30840835	0.42110340	0.45852123	0.05380785
4233	42.32000000	-0.03038546	0.17604313	-0.12316648	-0.36677879	-0.37706241	0.09981668	-0.23678234	0.09651136	-1.26754787	-0.33359185	0.29300981	-0.19788394	0.35256587	-0.26406590	-0.24631874	0.06231125	-0.18321986	-0.16345486	-0.15221294	-1.82308731	-0.29472549	0.45225642	0.33029139	0.12997796
4234	42.33000000	-0.09220664	0.19294309	-0.13582937	-0.34633980	-0.39404639	0.15773547	-0.22649430	0.12770938	-1.36229759	-0.37461669	0.33090197	-0.08421311	0.41217670	-0.31161659	-0.08521084	0.14235911	-0.27611187	-0.11667145	-0.17986423	-2.03795109	-0.26798267	0.44974054	0.15793747	0.25951542
